<svg xmlns="http://www.w3.org/2000/svg" width="452.09" height="447.891" viewBox="0 0 452.09 447.891">
  <g id="Group_534" data-name="Group 534" transform="translate(-1131.902 -230.154)">
    <g id="Group_532" data-name="Group 532" transform="translate(-138.555 -539.867)">
      <g id="Group_533" data-name="Group 533" transform="translate(110 534)">
        <path id="Path_6303" data-name="Path 6303" d="M-21213.7-20337.3s80.563-60.676,83.18-122.039-72.715-123.416-72.715-123.416-102.066-116.611-194.15-110.123-162.717,120.516-162.717,120.516-23.346,175.873,66.123,230.75S-21213.7-20337.3-21213.7-20337.3Z" transform="translate(22743 20999.867)" fill="#f3f1fd"/>
        <path id="Path_6302" data-name="Path 6302" d="M-21474.2-20334.9s-99.914-129.756-91.906-209.607,123.934-109.795,123.934-109.795,16.637-77.357,142.234-84.842,138.906,247.039,138.906,247.039-30.67,133.707-108.963,173.008S-21474.2-20334.9-21474.2-20334.9Z" transform="translate(22727.02 20975.328)" fill="rgba(218,218,227,0.31)"/>
        <path id="Path_6304" data-name="Path 6304" d="M-21459.5-20520.8l266.859-105.613s27.148.42,6.146,15.6-90.156,45.121-90.156,45.121v13.309l47.412-7.486s33.623-1.871-36.662,34.313-181.072,87.8-244.479,110.418c-3.937,1.4-8.746-5.775-9.15-10.617-.477-5.641,4.217-9.611,4.217-9.611l94.766-43.82s3.3-5.566,1.848-8.893-7.672-4.414-7.672-4.414-81.93,23.283-93.158,22.035,47.9-21.074,48.244-27.027-49.369,5.711-46.875,3.217S-21459.5-20520.8-21459.5-20520.8Z" transform="translate(22710 20956)" fill="#e8e4f6"/>
        <path id="Path_6306" data-name="Path 6306" d="M-21470.2-20539.2l220.367-87.215s22.42.348,5.076,12.883-74.449,37.26-74.449,37.26v10.99l39.152-6.182s27.766-1.545-30.275,28.334-149.527,72.508-201.887,91.182c-3.252,1.16-7.223-4.77-7.557-8.768-.395-4.658,3.482-7.936,3.482-7.936l78.256-36.187s2.729-4.6,1.525-7.344-6.334-3.645-6.334-3.645-67.658,19.227-76.93,18.2,39.557-17.4,39.84-22.32-40.77,4.717-38.709,2.656S-21470.2-20539.2-21470.2-20539.2Z" transform="translate(22791.313 21108.785)" fill="#e8e4f6"/>
        <path id="Path_6305" data-name="Path 6305" d="M-21487.1-20568.3l146.936-58.152s14.947.232,3.385,8.588-49.641,24.846-49.641,24.846v7.328l26.105-4.123s18.512-1.029-20.187,18.895-99.7,48.346-134.613,60.8c-2.168.773-4.816-3.18-5.039-5.846a6.9,6.9,0,0,1,2.324-5.291l52.178-24.129s1.82-3.066,1.018-4.9-4.223-2.43-4.223-2.43-45.113,12.82-51.3,12.133,26.377-11.6,26.566-14.881-27.184,3.145-25.812,1.771S-21487.1-20568.3-21487.1-20568.3Z" transform="translate(22824.879 21079.666)" fill="#e8e4f6"/>
        <path id="Path_6300" data-name="Path 6300" d="M-21313.8-20283.3s20.547,15.5,38.389,16.24a52.86,52.86,0,0,0,30.061-7.762s14.375,5.227,19.221-15.145c1.986-1.289,16.113-3.24,23.9-15.588,5.127-8.125,8.01-22.514,0-33.8s-30.02-12.062-30.02-12.062,6.5-12.449-5.924-26.107-40.77-16.58-40.77-16.58l-13.7-22.578-80.717,40.359s.189,21.834,9.418,36.969,27.5,23.568,27.5,23.568-1.355,24.363,4.3,32.484S-21313.8-20283.3-21313.8-20283.3Z" transform="translate(22740.75 20950.918)" fill="#fff"/>
        <path id="Path_6301" data-name="Path 6301" d="M-21436.5-20378.2s-4.922,5.781-4.922,10.334,4.922,7.875,4.922,7.875-35.436,13.291-35.436,32.977,5.291,26.086,24.609,39.867c7.051,5.029,16.811,4.041,25.592,6.4a283.707,283.707,0,0,1,27.068,8.857l6.893-106.309Z" transform="translate(22733.75 20944.918)" fill="#fff"/>
        <g id="Group_527" data-name="Group 527" transform="translate(28.201 -5.535)">
          <g id="Group_525" data-name="Group 525" transform="translate(-380 -16)">
            <g id="Group_515" data-name="Group 515" transform="translate(379.027 20.461)">
              <path id="Path_6260" data-name="Path 6260" d="M-21373.4-20633.2s-20.908,68.814-22.5,92.824c-.67,10.084,35.828,13.557,35.828,13.557l-1.75,12.039,7.441,19.7,9.959-19.7,4.488-15.105a4.844,4.844,0,0,0,4.6-1.965c3.992-5.857,11.381-21.453,11.381-21.453s19.688,9.652,19.688-9.666c0-6.781-2.426-17.131-5.656-27.984-5.738-19.283-14.031-39.621-14.031-39.621l-34.148-12.475Z" transform="translate(22711 20953.461)" fill="#fedbb7"/>
              <g id="Group_514" data-name="Group 514">
                <path id="Path_6253" data-name="Path 6253" d="M-21383.1-20600.4s1.162-29.58,5.221-34.012c1.631-1.781-4.555-.193-7-3.135-3.154-3.8-3.961-9.99-1.494-12.154s11.357,3.5,11.357,3.5-8.512-10.518-9.035-19.7c-.43-7.529,6.662-17.152,14.326-16.211a14.056,14.056,0,0,1,10.844,7.074c3.143,5.189,1.713,13.68,1.713,13.68s9.705-10.33,17.131-11.039,11,4.26,12.57,8.2-6.3,7.555-6.3,7.555,17.482.707,28.512,6.938,15.6,17.982,15.6,17.982,5.205-9.721,7.309-8.037a8.73,8.73,0,0,1,3.354,6.492c.066,3.5-2.244,8.279-2.244,8.279s4.678-.479,7.352,1.236c1.631,1.043,1.723,5.51-.537,7.895s-8.5,1.646-8.5,1.646.73,15.508-4.531,27.293-16.516,19.852-16.516,19.852-2.516-7.6-7.693-8.992-13.018,3.438-13.018,3.438-4.145-9.885-2.924-19.777,7.809-19.791,7.809-19.791-13.352-3.754-16.424-8.006,4.9-9.064,4.9-9.064-21.979,6.043-27.9,4.754,4.227-9.91,4.227-9.91l-18.018,1.346Z" transform="translate(22710 20956)" fill="#735d2d"/>
                <path id="Path_6254" data-name="Path 6254" d="M-21348.9-20614.5s5.355-3.152,9.465-1.146,6.975,9.168,6.975,9.168-3.4-5.092-7.51-7.1a15.265,15.265,0,0,0-8.928-.924Z" transform="translate(22710 20956)" fill="#413625"/>
                <path id="Path_6259" data-name="Path 6259" d="M-21348.8-20614.9c.377-.814,5.469-3.225,9.578-1.219s7.3,9.973,6.926,10.787-4.322-5.521-8.432-7.527S-21349.1-20614.1-21348.8-20614.9Z" transform="translate(-28087.898 4008.357) rotate(129)" fill="#413625"/>
                <path id="Path_6256" data-name="Path 6256" d="M-21351.2-20611.6s6.209,5.461,10.748,3.178,4.447-10.865,4.447-10.865-2.186,6.188-5.756,8.193S-21351.2-20611.6-21351.2-20611.6Z" transform="matrix(0.788, 0.616, -0.616, 0.788, 5487.08, 29747.604)" fill="#413625"/>
                <path id="Path_6258" data-name="Path 6258" d="M-21376-20579.3s-3.8-.975-5.557-3.736c-1.264-1.982-.2-6.391,3.125-7.076,2.779-.572,8.795,3.436,8.795,3.436l.166.123s7.344-12.658,7.447-12.045-7.035,14.5-7.035,14.5-8.725-6.309-10.553-2.889S-21376-20579.3-21376-20579.3Z" transform="translate(22710 20956)" fill="#b59167"/>
                <path id="Path_6313" data-name="Path 6313" d="M-21351.2-20611.6s5.176,5.461,8.961,3.178,3.709-10.865,3.709-10.865-1.822,6.188-4.8,8.193S-21351.2-20611.6-21351.2-20611.6Z" transform="matrix(0.788, 0.616, -0.616, 0.788, 5460.57, 29742.311)" fill="#413625"/>
                <path id="Path_6314" data-name="Path 6314" d="M-21348.9-20614.8s4.4-2.523,7.77-.918,5.725,7.344,5.725,7.344-2.791-4.078-6.164-5.686a12.834,12.834,0,0,0-7.332-.74Z" transform="translate(27545.529 14256.34) rotate(-16.024)" fill="#413625"/>
              </g>
            </g>
            <g id="Group_516" data-name="Group 516" transform="translate(379.582 16.512)">
              <path id="Path_6263" data-name="Path 6263" d="M-21328.5-20518.5s21.617,4.541,30.844,30.645,6.063,73.766,6.063,73.766h-57.08s-10.529-46.768-20.5-59.98-5.6-41.8-5.6-41.8l10.727,2.625a44.01,44.01,0,0,1,6.68,11.381c2.408,6.35,3.6,17.217,2.949,14.012s3.066-14.01,3.066-14.01Z" transform="translate(22710 20956)" fill="#fff"/>
              <path id="Path_6264" data-name="Path 6264" d="M-21363.6-20466.4s8.648,5.779,19.264,4.51,24.359-9.6,24.359-9.6.645,25.445,5.133,39.783,10.945,17.73,10.945,17.73h-44.584s-2.57-12.564-6.346-25.631S-21363.6-20466.4-21363.6-20466.4Z" transform="translate(22709 20956)" fill="#f1f1f2"/>
              <path id="Path_6261" data-name="Path 6261" d="M-21357.7-20503.5l-4.568,7s-10.633-12.7-11.754-19.029c-.43-2.43,7.271-6.275,7.271-6.275l5.592,8.846Z" transform="translate(22710 20956)" fill="#4e55d2"/>
              <path id="Path_6262" data-name="Path 6262" d="M-21339.4-20524.1l-12.254,22.318,5.68,6.076,17.533-22.018Z" transform="translate(22710 20956)" fill="#4e55d2"/>
            </g>
            <path id="Path_6266" data-name="Path 6266" d="M-21373.4-20482.8a13.9,13.9,0,0,0-.887-1.8c-.268-.838.164-.186.393,1.8.443,3.84,2.719,13.92,1.486,21.375-1.91,11.559-8.918,24.723-8.918,24.723l6.32,12.543,16.457-24.572s-3.52-10.551-6.984-19.131S-21372.5-20477.1-21373.4-20482.8Z" transform="translate(23090.027 20972.512)" fill="#bdc5de"/>
            <path id="Path_6267" data-name="Path 6267" d="M-21292-20415.1s7.832,27.4-13.957,38.469c-13.988,7.105-30.26,8.641-46.482,10.756-8.641,1.127-20.689-1.828-27.846,7.061-2.52,3.129-1.648,11.715-1.424,20.205.391,14.879,1.779,35.59,1.979,39.74.063,1.309-5.908.6-17.5.6,0,0-2.283-21.973-3.016-40.342-.492-12.393.7-23.1,0-23.1-.727,0-2.162,11.4-2.85,25-.883,17.467-.92,38.449-.92,38.449l-15.27-.6s.039-37.166,1.682-56.756,3.738-21.006,3.738-21.006l59.3-.084,11.416-5.754s13.559.416,23.244-4.346,13.955-14.771,13.955-14.771l6.914-3.334-1.354-2.408h-4.16l1.8-7.771Z" transform="translate(23090.027 20973.512)" fill="#414142"/>
            <g id="Group_524" data-name="Group 524">
              <path id="Path_6297" data-name="Path 6297" d="M-21343.9-20414.2h47.205a35.927,35.927,0,0,1-2.916,14.629c-1.785,4.043-5.543,8.111-9.779,11.051a39.181,39.181,0,0,1-14.352,6.092,60.337,60.337,0,0,1-15.57.965Z" transform="translate(23084.027 20972.568)" fill="#5e6061"/>
              <g id="Group_523" data-name="Group 523" transform="translate(380 18.512)">
                <path id="Path_6269" data-name="Path 6269" d="M-21433.6-20379.4c-6.3-.494-27.484-44.557-34.152-65.1-.908-2.8,80.742,0,80.742,0l31.994,65.1S-21408.5-20377.5-21433.6-20379.4Z" transform="translate(22710 20956)" fill="#d5d4d4"/>
                <path id="Path_6270" data-name="Path 6270" d="M-21433.2-20379.1l.5,2.42,78.086-.18,55.531-28.141-.453-3.062-55.078,28.762Z" transform="translate(22710 20955.172)" fill="#76888c"/>
                <path id="Path_6271" data-name="Path 6271" d="M-21299-20409.2l-68.32-1.037,12.953,25.777,1.084,3.574Z" transform="translate(22708.713 20956.797)" fill="#a4a6ac"/>
                <g id="Group_522" data-name="Group 522">
                  <path id="Path_6272" data-name="Path 6272" d="M-21330.4-20406.9l-12.262,5.441-18.316-1.84,10.115-5.135Z" transform="translate(22710 20956)" fill="#f3f4f5"/>
                  <path id="Path_6275" data-name="Path 6275" d="M-21326.6-20400.5l-3.262,2.352-2.045-.2,2.395-2.129Z" transform="translate(21613.145 22044.326) rotate(3)" fill="#f3f4f5"/>
                  <path id="Path_6281" data-name="Path 6281" d="M-21326.6-20400.5l-3.262,2.352-2.045-.2,2.395-2.129Z" transform="translate(21607.197 22046.951) rotate(3)" fill="#f3f4f5"/>
                  <path id="Path_6284" data-name="Path 6284" d="M-21326.6-20400.5l-3.262,2.352-2.045-.2,2.395-2.129Z" transform="translate(21600.07 22050.428) rotate(3)" fill="#f3f4f5"/>
                  <path id="Path_6292" data-name="Path 6292" d="M-21326.6-20400.5l-3.262,2.352-2.045-.2,2.395-2.129Z" transform="translate(21588.41 22050.428) rotate(3)" fill="#f3f4f5"/>
                  <path id="Path_6287" data-name="Path 6287" d="M-21326.6-20400.5l-3.262,2.352-2.045-.2,2.395-2.129Z" transform="translate(21595.07 22053.428) rotate(3)" fill="#f3f4f5"/>
                  <path id="Path_6276" data-name="Path 6276" d="M-21326.6-20400.5l-3.262,2.352-2.045-.2,2.395-2.129Z" transform="translate(21609.25 22044.326) rotate(3)" fill="#f3f4f5"/>
                  <path id="Path_6282" data-name="Path 6282" d="M-21326.6-20400.5l-3.262,2.352-2.045-.2,2.395-2.129Z" transform="translate(21603.303 22046.951) rotate(3)" fill="#f3f4f5"/>
                  <path id="Path_6285" data-name="Path 6285" d="M-21326.6-20400.5l-3.262,2.352-2.045-.2,2.395-2.129Z" transform="translate(21596.176 22050.428) rotate(3)" fill="#f3f4f5"/>
                  <path id="Path_6291" data-name="Path 6291" d="M-21326.6-20400.5l-3.262,2.352-2.045-.2,2.395-2.129Z" transform="translate(21584.516 22050.428) rotate(3)" fill="#f3f4f5"/>
                  <path id="Path_6288" data-name="Path 6288" d="M-21326.6-20400.5l-3.262,2.352-2.045-.2,2.395-2.129Z" transform="translate(21591.176 22053.428) rotate(3)" fill="#f3f4f5"/>
                  <path id="Path_6295" data-name="Path 6295" d="M-21326.6-20400.5l-3.262,2.352-2.045-.2,2.395-2.129Z" transform="translate(21587.699 22056.053) rotate(3)" fill="#f3f4f5"/>
                  <path id="Path_6277" data-name="Path 6277" d="M-21326.6-20400.5l-3.262,2.352-2.045-.2,2.395-2.129Z" transform="translate(21605.25 22044.326) rotate(3)" fill="#f3f4f5"/>
                  <path id="Path_6283" data-name="Path 6283" d="M-21326.6-20400.5l-3.262,2.352-2.045-.2,2.395-2.129Z" transform="translate(21599.303 22046.951) rotate(3)" fill="#f3f4f5"/>
                  <path id="Path_6286" data-name="Path 6286" d="M-21326.6-20400.5l-3.262,2.352-2.045-.2,2.395-2.129Z" transform="translate(21592.176 22050.428) rotate(3)" fill="#f3f4f5"/>
                  <path id="Path_6289" data-name="Path 6289" d="M-21326.6-20400.5l-3.262,2.352-2.045-.2,2.395-2.129Z" transform="translate(21587.176 22053.428) rotate(3)" fill="#f3f4f5"/>
                  <path id="Path_6278" data-name="Path 6278" d="M-21326.6-20400.5l-3.262,2.352-2.045-.2,2.395-2.129Z" transform="translate(21601.25 22044.326) rotate(3)" fill="#f3f4f5"/>
                  <path id="Path_6279" data-name="Path 6279" d="M-21326.6-20400.5l-3.262,2.352-2.045-.2,2.395-2.129Z" transform="translate(21584.227 22044.326) rotate(3)" fill="#f3f4f5"/>
                  <path id="Path_6293" data-name="Path 6293" d="M-21326.6-20400.5l-3.262,2.352-2.045-.2,2.395-2.129Z" transform="translate(21587.699 22047.803) rotate(3)" fill="#f3f4f5"/>
                  <path id="Path_6280" data-name="Path 6280" d="M-21326.6-20400.5l-3.262,2.352-2.045-.2,2.395-2.129Z" transform="translate(21580.227 22044.014) rotate(3)" fill="#f3f4f5"/>
                  <path id="Path_6294" data-name="Path 6294" d="M-21326.6-20400.5l-3.262,2.352-2.045-.2,2.395-2.129Z" transform="translate(21583.699 22047.49) rotate(3)" fill="#f3f4f5"/>
                </g>
                <path id="Path_6296" data-name="Path 6296" d="M-21467.6-20444.6c-.748-.035.5-2.963,1.672-3.088,5.852-.619,56.463-2.26,79.43,1.047,3.02.434,24.746,49.129,30.775,63.01a19.391,19.391,0,0,1,1.174,3.58l-.8,0-31.822-63.738S-21448.3-20446.8-21467.6-20444.6Z" transform="translate(22710 20956)" fill="#dadada"/>
              </g>
            </g>
            <g id="Group_517" data-name="Group 517" transform="translate(380.027 17.512)">
              <path id="Path_6265" data-name="Path 6265" d="M-21336.5-20405.2l-10.725-8.1s16.857-16.885,22.709-36.627c3.92-13.227,2.732-21.57,1.605-30.068-.494-3.727-1.924-8.346-.908-12.275.9-3.494,9.928-8.746,14.012.7,5.021,11.627,4.865,40.258.668,50.906C-21316.6-20421.8-21336.5-20405.2-21336.5-20405.2Z" transform="translate(22710 20956)" fill="#bdc5de"/>
              <circle id="Ellipse_14" data-name="Ellipse 14" cx="9" cy="9" r="9" transform="translate(1351 543)" fill="#fedbb7"/>
            </g>
          </g>
          <g id="Group_526" data-name="Group 526">
            <path id="Path_6298" data-name="Path 6298" d="M-21380.9-20296.6l2.387,7.494-8.846,2.527-2.82-3.586-6.363,6.627s-16.521,4.012-17.182,2.691c-1.389-2.775,4.723-8.26,4.723-8.26l6.318-1.937,6.105-5.764Z" transform="translate(22710 20956)" fill="#010101"/>
            <path id="Path_6299" data-name="Path 6299" d="M-21418.9-20297.3a12.535,12.535,0,0,1-3.416,3.166,44.831,44.831,0,0,1-6.057,3.107l-9.412,3.078a7.23,7.23,0,0,0-1.869,4.883c.021.521,17.92,0,17.92,0l7.963-5.852,1.871,3.621,8.146-4.285v-7.721Z" transform="translate(22710 20956)" fill="#010101"/>
          </g>
        </g>
      </g>
    </g>
    <g id="Group_392" data-name="Group 392" transform="translate(8.625 -4.777)">
      <g id="Group_390" data-name="Group 390" transform="translate(1175.5 248.5)">
        <path id="Union_1" data-name="Union 1" d="M69.9,94.809a54.119,54.119,0,0,1-18.21,3.126C23.142,97.935,0,76.011,0,48.967S23.142,0,51.689,0s51.687,21.923,51.687,48.967A47.945,47.945,0,0,1,84.233,87.011c-.146.291-.241.483-.241.483s-.523,7.314,4.965,10.3c3.925,2.135,3.791,3.325,3.791,3.325S76.175,97.978,69.9,94.809Z" fill="#d7d0fc" stroke="#c0b4ff" stroke-width="2"/>
      </g>
      <g id="Group_391" data-name="Group 391" transform="translate(1196.583 277.744)">
        <g id="Rectangle_9" data-name="Rectangle 9" transform="translate(-0.208 0.033)" fill="#fff" stroke="#c0b4ff" stroke-width="2">
          <rect width="61" height="42" rx="8" stroke="none"/>
          <rect x="1" y="1" width="59" height="40" rx="7" fill="none"/>
        </g>
        <path id="Polygon_1" data-name="Polygon 1" d="M11.342,2.778a2,2,0,0,1,3.409,0l9.473,15.437a2,2,0,0,1-1.7,3.046H3.574a2,2,0,0,1-1.7-3.046Z" transform="matrix(0.829, -0.559, 0.559, 0.829, 11.748, 15.878)" fill="#664bf1"/>
        <g id="Group_385" data-name="Group 385" transform="translate(8.161 9.521)">
          <rect id="Rectangle_10" data-name="Rectangle 10" width="6" height="6" transform="translate(-0.369 -0.488)" fill="#664bf1"/>
          <rect id="Rectangle_11" data-name="Rectangle 11" width="6" height="5" transform="translate(-0.369 8.512)" fill="#664bf1"/>
          <rect id="Rectangle_12" data-name="Rectangle 12" width="6" height="4" transform="translate(-0.369 17.512)" fill="#664bf1"/>
        </g>
        <g id="Group_386" data-name="Group 386" transform="translate(48.967 9.521)">
          <rect id="Rectangle_10-2" data-name="Rectangle 10" width="6" height="6" transform="translate(-0.175 -0.488)" fill="#664bf1"/>
          <rect id="Rectangle_11-2" data-name="Rectangle 11" width="6" height="5" transform="translate(-0.175 8.512)" fill="#664bf1"/>
          <rect id="Rectangle_12-2" data-name="Rectangle 12" width="6" height="4" transform="translate(-0.175 17.512)" fill="#664bf1"/>
        </g>
      </g>
    </g>
  </g>
</svg>
