<svg xmlns="http://www.w3.org/2000/svg" width="210.71" height="40.187" viewBox="0 0 210.71 40.187">
  <g id="Group_2" data-name="Group 2" transform="translate(500 -3.49)">
    <g id="Group_1" data-name="Group 1" transform="translate(-500 3.839)">
      <path id="Path_1" data-name="Path 1" d="M-493.133,39.88a8.178,8.178,0,0,1-4.063-1.054A7.088,7.088,0,0,1-500,36.06l1.993-2.031a5.493,5.493,0,0,0,4.76,3.009,3.43,3.43,0,0,0,2.274-.735,2.26,2.26,0,0,0,.894-1.827,3.31,3.31,0,0,0-.083-.773,1.28,1.28,0,0,0-.364-.606c-.189-.189-.356-.341-.485-.447a3.086,3.086,0,0,0-.735-.364c-.356-.136-.606-.227-.773-.288s-.493-.159-.993-.3-.849-.25-1.038-.3a10.78,10.78,0,0,1-1.668-.652,7.653,7.653,0,0,1-1.425-.932,3.709,3.709,0,0,1-1.054-1.4,4.658,4.658,0,0,1-.364-1.887,4.329,4.329,0,0,1,1.584-3.456,6.133,6.133,0,0,1,4.108-1.342,7.257,7.257,0,0,1,3.252.735A5.117,5.117,0,0,1-487.88,24.4l-1.872,1.91a3.82,3.82,0,0,0-3.456-1.91,2.956,2.956,0,0,0-1.887.591,1.853,1.853,0,0,0-.75,1.523,1.886,1.886,0,0,0,.121.69,1.317,1.317,0,0,0,.47.591c.227.174.424.318.591.424a4.566,4.566,0,0,0,.894.387c.432.152.75.258.955.326s.591.182,1.16.349a11.842,11.842,0,0,1,1.751.629,9.9,9.9,0,0,1,1.523.917,3.549,3.549,0,0,1,1.2,1.5,5.32,5.32,0,0,1,.409,2.153,4.983,4.983,0,0,1-.811,2.782,5.481,5.481,0,0,1-2.259,1.933A7.806,7.806,0,0,1-493.133,39.88Z" transform="translate(500 -8.251)" fill="#664bf1"/>
      <path id="Path_2" data-name="Path 2" d="M-477.9,35.011V3.95h3.168V20.534a5.491,5.491,0,0,1,2.274-2.334,7.112,7.112,0,0,1,3.494-.834,5.413,5.413,0,0,1,4.351,1.812,7.558,7.558,0,0,1,1.546,5.063v10.77h-3.168V24.68a6.348,6.348,0,0,0-.409-2.418,3.031,3.031,0,0,0-1.22-1.5,3.676,3.676,0,0,0-1.993-.508,4.55,4.55,0,0,0-3.494,1.486,5.236,5.236,0,0,0-1.379,3.722v9.55Z" transform="translate(494.651 -3.95)" fill="#664bf1"/>
      <path id="Path_3" data-name="Path 3" d="M-439.307,22.216h3.214V39.293h-3.214l.159-3.047a6.623,6.623,0,0,1-6.223,3.615A7.039,7.039,0,0,1-451,37.36a9.815,9.815,0,0,1-2.137-6.609,9.8,9.8,0,0,1,2.153-6.609,7.14,7.14,0,0,1,5.692-2.5,6.514,6.514,0,0,1,6.139,3.578Zm-5.4,14.712a5.356,5.356,0,0,0,2.926-.8,5,5,0,0,0,1.91-2.2,7.524,7.524,0,0,0,.652-3.191,6.71,6.71,0,0,0-1.463-4.495,4.952,4.952,0,0,0-3.987-1.728,4.661,4.661,0,0,0-3.8,1.69,6.881,6.881,0,0,0-1.4,4.533,6.864,6.864,0,0,0,1.379,4.51A4.631,4.631,0,0,0-444.712,36.928Z" transform="translate(488.658 -8.232)" fill="#664bf1"/>
      <path id="Path_4" data-name="Path 4" d="M-423.78,39.348V22.272h3.168l-.083,2.683a4.741,4.741,0,0,1,1.751-2.274,4.583,4.583,0,0,1,2.645-.811,3.951,3.951,0,0,1,3.456,1.872l-1.827,2.645a2.31,2.31,0,0,0-2.153-1.379,3.116,3.116,0,0,0-2.766,1.645,8.282,8.282,0,0,0-1.016,4.373v8.337h-3.176Z" transform="translate(481.551 -8.288)" fill="#664bf1"/>
      <path id="Path_5" data-name="Path 5" d="M-399.224,37.057a6.951,6.951,0,0,0,5.45-2.441l1.993,2.153a10.268,10.268,0,0,1-7.686,3.092,8.283,8.283,0,0,1-6.283-2.5,9.194,9.194,0,0,1-2.38-6.609,9.258,9.258,0,0,1,2.357-6.609,8.148,8.148,0,0,1,6.223-2.5,7.653,7.653,0,0,1,6,2.585,10.05,10.05,0,0,1,2.334,6.852h-13.7a6.4,6.4,0,0,0,1.584,4.389A5.389,5.389,0,0,0-399.224,37.057Zm-.326-12.6a5.632,5.632,0,0,0-2.334.47,4.659,4.659,0,0,0-1.751,1.364,5.7,5.7,0,0,0-1.038,2.153h10.126a4.588,4.588,0,0,0-1.63-2.948A5.2,5.2,0,0,0-399.55,24.452Z" transform="translate(477.763 -8.232)" fill="#664bf1"/>
      <path id="Path_6" data-name="Path 6" d="M-380.56,39.322V22.245h3.168l-.038,2.562A5.853,5.853,0,0,1-371.9,21.76a5.407,5.407,0,0,1,3.214.955,4.993,4.993,0,0,1,1.872,2.585,6.4,6.4,0,0,1,5.973-3.54,5.162,5.162,0,0,1,4.229,1.789,7.741,7.741,0,0,1,1.463,5.04V39.322h-3.168V29.074a5.419,5.419,0,0,0-.857-3.29,2.907,2.907,0,0,0-2.478-1.137,4.163,4.163,0,0,0-3.312,1.486,5.484,5.484,0,0,0-1.281,3.722v9.474h-3.168V29.074a5.315,5.315,0,0,0-.872-3.29,2.97,2.97,0,0,0-2.5-1.137,4.1,4.1,0,0,0-3.312,1.546,5.954,5.954,0,0,0-1.281,3.941v9.186Z" transform="translate(471.09 -8.261)" fill="#664bf1"/>
      <path id="Path_7" data-name="Path 7" d="M-327.957,22.216h3.214V39.293h-3.214l.159-3.047a6.623,6.623,0,0,1-6.223,3.615,7.039,7.039,0,0,1-5.632-2.5,9.815,9.815,0,0,1-2.137-6.609,9.8,9.8,0,0,1,2.153-6.609,7.14,7.14,0,0,1,5.692-2.5,6.514,6.514,0,0,1,6.139,3.578Zm-5.4,14.712a5.356,5.356,0,0,0,2.926-.8,5,5,0,0,0,1.91-2.2,7.524,7.524,0,0,0,.652-3.191,6.71,6.71,0,0,0-1.463-4.495,4.952,4.952,0,0,0-3.987-1.728,4.661,4.661,0,0,0-3.8,1.69,6.881,6.881,0,0,0-1.4,4.533,6.864,6.864,0,0,0,1.379,4.51A4.621,4.621,0,0,0-333.362,36.928Z" transform="translate(461.705 -8.232)" fill="#664bf1"/>
      <path id="Path_8" data-name="Path 8" d="M-312.44,39.319V22.243h3.168l-.038,2.562a5.505,5.505,0,0,1,2.334-2.259,7.3,7.3,0,0,1,3.434-.8,5.446,5.446,0,0,1,4.351,1.789,7.466,7.466,0,0,1,1.546,5.04V39.312h-3.168V29.072a5.123,5.123,0,0,0-.917-3.29,3.215,3.215,0,0,0-2.66-1.137,4.55,4.55,0,0,0-3.494,1.486,5.236,5.236,0,0,0-1.379,3.722v9.474h-3.176Z" transform="translate(454.601 -8.258)" fill="#664bf1"/>
      <path id="Path_9" data-name="Path 9" d="M-273.85,22.223h3.168V39.376q0,4.229-2.153,6.465a8.238,8.238,0,0,1-6.223,2.236,10.414,10.414,0,0,1-4.146-.856,9.5,9.5,0,0,1-3.373-2.4l2.115-2.153a6.657,6.657,0,0,0,5.328,2.524,5.141,5.141,0,0,0,3.941-1.44,6.03,6.03,0,0,0,1.342-4.245v-3.13a6.687,6.687,0,0,1-6.1,3.335,7.089,7.089,0,0,1-5.654-2.456A9.717,9.717,0,0,1-287.72,30.7a9.672,9.672,0,0,1,2.153-6.549,7.169,7.169,0,0,1,5.692-2.478,6.532,6.532,0,0,1,6.1,3.418Zm-5.45,14.553a5.037,5.037,0,0,0,4-1.69,6.444,6.444,0,0,0,1.486-4.411A6.839,6.839,0,0,0-275.3,26.24a4.914,4.914,0,0,0-3.964-1.705,4.688,4.688,0,0,0-3.8,1.667,6.737,6.737,0,0,0-1.4,4.472,6.7,6.7,0,0,0,1.379,4.449A4.659,4.659,0,0,0-279.3,36.776Z" transform="translate(448.618 -8.239)" fill="#664bf1"/>
      <path id="Path_10" data-name="Path 10" d="M-251.312,39.864a8.231,8.231,0,0,1-6.283-2.478,9.306,9.306,0,0,1-2.334-6.67,9.131,9.131,0,0,1,2.38-6.564,8.216,8.216,0,0,1,6.238-2.5,8.158,8.158,0,0,1,6.261,2.478,9.255,9.255,0,0,1,2.319,6.587,9.3,9.3,0,0,1-2.357,6.647A8.159,8.159,0,0,1-251.312,39.864Zm0-2.933a4.829,4.829,0,0,0,3.881-1.69,6.733,6.733,0,0,0,1.44-4.533,7.767,7.767,0,0,0-.652-3.274,4.917,4.917,0,0,0-1.849-2.153,5.232,5.232,0,0,0-2.827-.75,4.921,4.921,0,0,0-3.926,1.667,6.657,6.657,0,0,0-1.44,4.51,6.8,6.8,0,0,0,1.425,4.555A4.916,4.916,0,0,0-251.312,36.93Z" transform="translate(441.891 -8.234)" fill="#664bf1"/>
    </g>
    <path id="Path_11" data-name="Path 11" d="M-239.125,15.117s-2.183-9.436,7.754-11.627C-231.371,3.49-227.794,15.117-239.125,15.117Z" transform="translate(-63.096)" fill="#f26522"/>
    <path id="Path_12" data-name="Path 12" d="M-232.04,22.307s6.177-1.433,7.61,5.071C-224.43,27.385-232.04,29.728-232.04,22.307Z" transform="translate(-64.86 -4.522)" fill="#65ae5b"/>
  </g>
</svg>
