<svg xmlns="http://www.w3.org/2000/svg" width="64.5" height="71.571" viewBox="0 0 64.5 71.571">
  <g id="Group_13" data-name="Group 13" transform="translate(-396.75 -2001.408)">
    <path id="Subtraction_5" data-name="Subtraction 5" d="M-263.738,211.571a2.143,2.143,0,0,1-1.126-.536c-1.185-.829-2.389-1.667-3.554-2.477-2.67-1.857-5.431-3.777-8.118-5.709a37.98,37.98,0,0,1-7.4-7,41.953,41.953,0,0,1-5.354-8.687,48.541,48.541,0,0,1-3.578-13.195c-.694-4.552-1.439-9.175-2.159-13.646v-.008l-.011-.071c-.287-1.781-.584-3.622-.873-5.433-.022-.127-.046-.252-.063-.343l0-.009-.017-.091c-.018-.8.377-1.237,1.241-1.377.806-.13,1.626-.255,2.42-.375,1.891-.287,3.844-.583,5.744-.983a43.861,43.861,0,0,0,19.215-8.778c.66-.539,1.3-1.128,1.915-1.7.228-.211.464-.429.7-.642a1.588,1.588,0,0,1,1.041-.51,1.437,1.437,0,0,1,.984.5c5.94,5.829,13.582,9.57,23.362,11.436,1.461.278,2.957.5,4.4.711.731.107,1.486.218,2.227.335a1.5,1.5,0,0,1,1.041.521,1.484,1.484,0,0,1,.172,1.14c-.385,2.395-.766,4.832-1.134,7.189v.005c-.8,5.132-1.629,10.438-2.56,15.637a40.457,40.457,0,0,1-5.43,14.393,40.027,40.027,0,0,1-10.586,11.183c-2.569,1.859-5.215,3.7-7.774,5.48l0,0c-1.175.817-2.39,1.662-3.581,2.5A2.153,2.153,0,0,1-263.738,211.571Zm-.005-68.705a42.83,42.83,0,0,1-13.856,8.586,64.6,64.6,0,0,1-15.812,3.738c.009.085.014.151.019.206.007.075.011.129.019.183q.445,2.792.894,5.584l.005.033c.634,3.953,1.29,8.041,1.917,12.064a49.617,49.617,0,0,0,2.607,10.928,37.31,37.31,0,0,0,13.287,17.06c2.029,1.428,4.1,2.875,6.095,4.274l.03.021q1.737,1.215,3.473,2.432l.015.011c.653.457.981.687,1.312.687s.694-.252,1.34-.71c1.208-.857,2.45-1.707,3.651-2.53,2.738-1.876,5.57-3.816,8.177-5.944a36.179,36.179,0,0,0,12.965-22.284c.653-3.641,1.237-7.356,1.8-10.948.229-1.455.466-2.959.7-4.441.254-1.578.5-3.125.751-4.763l.01-.066q.14-.9.283-1.809a64.447,64.447,0,0,1-15.844-3.735,42.787,42.787,0,0,1-13.845-8.578Zm0,61.538a1.9,1.9,0,0,1-1.069-.537c-1.166-.918-2.36-1.837-3.514-2.725-2.628-2.021-5.345-4.111-7.884-6.321a29.424,29.424,0,0,1-9.751-17.6c-.712-4.061-1.365-8.2-2-12.2-.271-1.718-.552-3.5-.834-5.246a2.481,2.481,0,0,1-.037-.277c0-.038-.007-.077-.012-.118a1.2,1.2,0,0,1,1.1-1.185c.559-.088,1.128-.172,1.679-.254,1.24-.184,2.521-.374,3.771-.615a34.452,34.452,0,0,0,15.427-6.729c.553-.442,1.085-.93,1.6-1.4.156-.143.312-.286.468-.427a1.668,1.668,0,0,1,1.074-.541,1.481,1.481,0,0,1,1.006.519c4.852,4.7,10.946,7.525,19.178,8.88.569.094,1.15.178,1.712.259.7.1,1.418.2,2.123.328a1.159,1.159,0,0,1,1.025,1.461c-.273,1.7-.544,3.419-.805,5.085-.656,4.178-1.335,8.5-2.1,12.73a31.463,31.463,0,0,1-2.087,6.942c-.136.013-.267.02-.389.02a2.581,2.581,0,0,1-.932-.156,2.507,2.507,0,0,1-.94-.68,28.68,28.68,0,0,0,1.81-5.649c.553-2.613.964-5.3,1.362-7.9.168-1.1.343-2.238.525-3.355.238-1.45.464-2.874.7-4.382v-.006q.154-.965.311-1.949c-9.687-1.183-16.845-4.137-22.526-9.293a33.411,33.411,0,0,1-10.527,6.442,49.73,49.73,0,0,1-11.951,2.857c.006.07.01.133.013.191v.012c.007.107.012.2.026.289q.327,2.049.651,4.1l0,.015c.579,3.648,1.178,7.421,1.784,11.136a28.4,28.4,0,0,0,10.351,18.014c1.823,1.478,3.707,2.938,5.53,4.349,1.194.925,2.429,1.882,3.636,2.835a.8.8,0,0,0,.48.212.885.885,0,0,0,.531-.248c1.517-1.194,3.067-2.4,4.566-3.562,1.323-1.028,2.69-2.09,4.029-3.141a29.586,29.586,0,0,0,6.827-7.469c.069,0,.14,0,.21,0a3.068,3.068,0,0,1,.909.113,1.373,1.373,0,0,1,1,1.026,31.99,31.99,0,0,1-7.367,8.134c-2.332,1.845-4.719,3.694-7.028,5.483l-.025.019q-1.274.987-2.547,1.975A1.96,1.96,0,0,1-263.743,204.4Z" transform="translate(692.75 1861.408)" fill="white"/>
    <g id="_1383676" data-name="1383676" transform="translate(416.677 2024.87)">
      <path id="Path_18" data-name="Path 18" d="M11.552,0h1.54c.42.055.841.1,1.258.167a12.094,12.094,0,0,1,6.1,2.908A12.119,12.119,0,0,1,24.456,10.2c.08.448.127.9.189,1.353v1.54a1.407,1.407,0,0,0-.04.186,11.76,11.76,0,0,1-1.671,5.287,12.182,12.182,0,0,1-8.491,5.892c-.447.084-.9.127-1.352.189h-1.54a1,1,0,0,0-.161-.038,11.877,11.877,0,0,1-5.8-1.976,12.174,12.174,0,0,1-5.4-8.185C.106,14,.062,13.544,0,13.093v-1.54c.037-.3.068-.6.112-.9A12.157,12.157,0,0,1,3.533,3.7,12.07,12.07,0,0,1,10.2.19C10.648.11,11.1.062,11.552,0ZM5.647,11.591a19.565,19.565,0,0,1,.828-5L3.908,5.434a10.8,10.8,0,0,0-2.436,6.157Zm0,1.466H1.47A10.823,10.823,0,0,0,3.909,19.21l2.569-1.153A19.5,19.5,0,0,1,5.645,13.057ZM18.167,6.59a19.6,19.6,0,0,1,.833,5h4.174a10.817,10.817,0,0,0-2.437-6.152Zm5.007,6.467H19a19.676,19.676,0,0,1-.83,5l2.568,1.154A10.819,10.819,0,0,0,23.174,13.057ZM7.1,11.584h4.493V7.557L7.862,7.021A17.893,17.893,0,0,0,7.1,11.584Zm5.956,0h4.5a17.75,17.75,0,0,0-.769-4.565l-3.73.534ZM7.863,17.624l3.724-.535V13.065H7.094A17.866,17.866,0,0,0,7.863,17.624Zm5.188-.537,3.732.537a17.929,17.929,0,0,0,.765-4.562h-4.5C13.051,14.425,13.051,15.77,13.051,17.087ZM13.058,1.58V6.042a16.035,16.035,0,0,0,3.218-.452A7.873,7.873,0,0,0,13.058,1.58Zm.005,16.967v4.517A7.967,7.967,0,0,0,16.3,19ZM11.581,6.1V1.581A7.958,7.958,0,0,0,8.347,5.644Zm.011,12.5a15.972,15.972,0,0,0-3.273.469c.4.708.762,1.387,1.173,2.033a5.441,5.441,0,0,0,1.606,1.67c.15.1.314.175.494.275Zm4.317-16.52a14.248,14.248,0,0,1,1.772,3.132L19.7,4.339A10.388,10.388,0,0,0,15.909,2.081ZM4.946,20.3A10.458,10.458,0,0,0,8.74,22.568a14.289,14.289,0,0,1-1.777-3.135Zm10.933,2.257a9.641,9.641,0,0,0,3.786-2.274l-1.988-.854A12.985,12.985,0,0,1,15.879,22.562ZM8.736,2.079A10.41,10.41,0,0,0,4.947,4.341l2.021.87A14.145,14.145,0,0,1,8.736,2.079Z" fill="#664bf1"/>
    </g>
  </g>
</svg>
